<?xml version="1.0" standalone="no"?>
<!DOCTYPE svg PUBLIC "-//W3C//DTD SVG 20010904//EN"
 "http://www.w3.org/TR/2001/REC-SVG-20010904/DTD/svg10.dtd">
<svg version="1.0" xmlns="http://www.w3.org/2000/svg"
 width="1041.000000pt" height="1041.000000pt" viewBox="0 0 1041.000000 1041.000000"
 preserveAspectRatio="xMidYMid meet">
<metadata>
Created by potrace 1.14, written by Peter Selinger 2001-2017
</metadata>
<g transform="translate(0.000000,1041.000000) scale(0.100000,-0.100000)"
fill="#000000" stroke="none">
<path d="M3605 9335 c-11 -30 -23 -55 -27 -55 -4 0 -8 -7 -8 -16 0 -9 -6 -28
-14 -42 -8 -15 -26 -56 -41 -92 -15 -36 -39 -90 -53 -120 -14 -30 -26 -59 -28
-65 -1 -5 -45 -109 -98 -230 -53 -121 -110 -251 -127 -290 -17 -38 -35 -79
-40 -90 -11 -26 -86 -199 -106 -245 -8 -19 -20 -48 -28 -65 -7 -16 -20 -46
-28 -65 -8 -19 -25 -57 -38 -85 -12 -27 -24 -54 -25 -60 -1 -5 -18 -45 -38
-88 -20 -43 -39 -89 -42 -103 -3 -13 -10 -24 -15 -24 -5 0 -9 -7 -9 -16 0 -8
-10 -36 -21 -62 -12 -26 -29 -65 -39 -87 -10 -22 -27 -60 -38 -85 -11 -25 -34
-79 -52 -120 -38 -89 -57 -131 -80 -185 -72 -161 -83 -189 -82 -197 1 -5 -2
-8 -8 -8 -6 0 -9 -3 -8 -7 1 -5 -6 -25 -15 -47 -9 -21 -17 -45 -17 -52 0 -8
-4 -14 -9 -14 -4 0 -14 -20 -21 -45 -7 -25 -17 -45 -21 -45 -5 0 -9 -8 -9 -18
0 -10 -4 -22 -8 -28 -5 -5 -16 -27 -24 -49 -9 -22 -28 -66 -42 -97 -26 -57
-48 -109 -51 -118 0 -3 -11 -27 -23 -54 -13 -28 -25 -60 -28 -73 -4 -13 -10
-23 -15 -23 -5 0 -9 -8 -9 -18 0 -10 -3 -22 -7 -26 -5 -4 -8 -11 -9 -14 -1 -9
-15 -43 -52 -122 -17 -36 -42 -94 -57 -130 -28 -67 -33 -79 -85 -195 -18 -38
-33 -74 -34 -80 -2 -5 -13 -32 -26 -60 -13 -27 -24 -54 -25 -60 -2 -5 -17 -40
-34 -78 -17 -37 -31 -72 -31 -77 0 -6 -4 -10 -8 -10 -5 0 -9 -6 -9 -12 0 -7
-9 -33 -20 -58 -87 -193 -105 -236 -107 -245 -1 -5 -13 -32 -25 -60 -28 -61
-50 -109 -86 -195 -15 -36 -36 -83 -46 -105 -9 -22 -41 -94 -69 -160 -74 -173
-75 -174 -104 -238 -14 -32 -26 -64 -26 -72 0 -8 -4 -15 -10 -15 -5 0 -10 -5
-10 -10 0 -6 -7 -27 -17 -48 -9 -20 -17 -39 -18 -42 -3 -10 -23 -55 -49 -114
-14 -32 -26 -64 -26 -71 0 -7 -6 -18 -14 -24 -8 -7 -17 -23 -20 -37 -4 -13
-17 -48 -30 -77 -65 -145 -78 -177 -74 -187 2 -6 12 -3 26 10 12 11 22 17 22
13 0 -4 4 -3 8 2 4 6 23 22 42 35 19 14 42 31 50 39 8 7 76 56 150 107 74 52
146 102 159 112 56 41 121 86 194 134 42 28 77 55 77 61 0 6 3 7 6 4 4 -4 23
6 43 21 20 15 70 50 111 77 41 27 77 52 80 55 3 3 30 21 60 40 30 19 60 38 65
43 17 14 388 257 393 257 2 0 18 10 35 22 18 13 88 58 157 100 69 43 132 82
140 88 85 57 107 70 117 70 6 0 13 3 15 8 2 4 17 15 33 25 117 68 371 222 375
227 3 3 16 11 30 18 53 27 142 86 157 103 6 8 21 39 33 69 12 30 27 69 34 85
40 93 51 120 49 125 0 3 5 16 13 30 21 39 77 182 77 197 0 7 4 13 8 13 6 0 16
25 16 40 0 3 6 16 13 30 8 14 15 27 15 30 0 4 20 53 74 185 5 11 8 22 8 25 0
3 10 25 22 49 13 24 24 51 26 60 3 15 50 130 81 198 8 17 14 33 14 36 0 2 8
22 17 43 9 22 17 41 18 44 3 9 17 44 36 85 10 23 21 53 24 68 4 15 10 27 14
27 4 0 8 6 8 13 0 6 10 33 21 59 12 26 22 50 22 53 0 6 48 123 85 210 7 17 33
80 58 140 51 126 64 156 85 205 9 19 17 41 18 49 3 16 22 37 28 30 2 -2 29
-67 60 -144 32 -77 63 -154 71 -172 8 -17 15 -34 15 -38 0 -3 8 -25 19 -48 32
-73 99 -246 101 -265 1 -4 7 -14 14 -22 7 -8 17 -28 21 -45 11 -40 10 -37 23
-65 21 -44 123 -294 126 -311 2 -8 13 -35 24 -60 11 -24 34 -80 52 -124 18
-44 34 -83 37 -87 4 -8 70 23 116 54 15 11 27 17 27 14 0 -3 21 7 48 22 26 15
83 46 127 67 44 22 83 43 86 48 3 5 9 8 13 8 3 -1 57 24 119 56 61 31 159 80
217 108 58 28 111 54 119 59 16 10 216 109 276 136 24 11 113 53 197 93 84 40
168 79 186 86 26 11 31 18 26 35 -7 24 -124 305 -159 381 -12 28 -28 67 -36
88 -7 20 -17 37 -23 37 -5 0 -7 3 -4 6 5 5 -13 53 -52 139 -5 11 -23 54 -40
95 -17 41 -35 84 -40 95 -38 83 -58 135 -52 135 4 0 2 4 -3 8 -10 6 -245 547
-281 643 -7 20 -25 62 -39 95 -15 32 -33 73 -40 89 -7 17 -21 50 -32 75 -11
25 -31 72 -44 105 -13 33 -27 62 -31 63 -5 2 -8 9 -8 17 0 11 -27 80 -60 150
-5 11 -21 49 -36 85 -14 36 -34 83 -44 105 -10 22 -30 70 -46 108 l-28 67
-977 0 -976 0 -18 -55z"/>
<path d="M10309 6586 c-2 -2 -26 -7 -54 -10 -66 -9 -106 -14 -130 -19 -11 -3
-45 -8 -75 -12 -30 -4 -64 -9 -75 -12 -11 -2 -60 -11 -110 -19 -49 -8 -101
-17 -115 -20 -14 -3 -34 -6 -45 -8 -11 -2 -47 -9 -80 -15 -33 -6 -71 -13 -85
-16 -34 -6 -110 -22 -136 -28 -12 -3 -37 -8 -55 -11 -19 -3 -95 -19 -169 -36
-137 -31 -163 -37 -202 -44 -13 -3 -39 -10 -58 -16 -19 -5 -46 -12 -60 -15
-89 -17 -204 -47 -216 -56 -6 -5 -13 -7 -16 -4 -2 3 -27 -2 -54 -9 -60 -18
-203 -57 -225 -61 -9 -2 -37 -10 -63 -19 -25 -9 -58 -18 -73 -21 -16 -2 -53
-13 -83 -23 -30 -11 -57 -19 -60 -19 -3 0 -21 -5 -40 -11 -19 -5 -82 -25 -140
-42 -121 -37 -378 -118 -400 -127 -8 -3 -19 -7 -25 -7 -5 -1 -23 -6 -40 -13
-33 -12 -69 -24 -72 -24 -2 0 -84 -29 -370 -129 -29 -11 -53 -16 -53 -12 0 4
-4 3 -8 -3 -7 -9 -59 -32 -92 -40 -8 -2 -17 -4 -20 -5 -3 -1 -8 -2 -12 -1 -5
0 -8 -4 -8 -9 0 -6 -7 -10 -15 -10 -8 0 -57 -16 -107 -36 -51 -20 -118 -46
-148 -57 -30 -12 -57 -22 -60 -22 -3 -1 -22 -9 -44 -18 -21 -9 -40 -17 -43
-17 -2 0 -20 -7 -41 -16 -20 -10 -41 -18 -47 -19 -10 -3 -167 -66 -215 -87
-14 -6 -38 -16 -55 -23 -67 -29 -83 -35 -155 -66 -83 -34 -135 -57 -165 -70
-63 -27 -215 -94 -245 -107 -19 -9 -37 -16 -40 -17 -3 0 -30 -12 -60 -27 -54
-25 -108 -50 -200 -90 -63 -28 -145 -66 -285 -134 -66 -32 -122 -58 -125 -59
-12 -2 -746 -369 -750 -375 -3 -4 -16 -11 -30 -15 -14 -4 -41 -17 -60 -29 -19
-12 -58 -32 -85 -46 -28 -14 -52 -27 -55 -30 -3 -3 -36 -21 -75 -40 -38 -19
-72 -37 -75 -40 -3 -3 -36 -21 -75 -41 -119 -63 -140 -74 -145 -79 -3 -3 -16
-11 -30 -17 -14 -7 -43 -23 -65 -35 -22 -13 -76 -43 -120 -68 -44 -25 -88 -49
-97 -55 -71 -43 -150 -85 -158 -85 -6 0 -10 -3 -10 -8 0 -4 -21 -18 -48 -32
-26 -14 -89 -51 -140 -82 -51 -32 -97 -58 -102 -58 -5 0 -15 -6 -22 -13 -7 -7
-24 -18 -38 -25 -14 -6 -60 -34 -103 -62 -43 -27 -83 -50 -88 -50 -5 0 -9 -4
-9 -10 0 -5 -4 -10 -9 -10 -12 0 -145 -82 -149 -92 -2 -5 -8 -8 -13 -8 -7 0
-142 -83 -174 -107 -11 -9 -90 -61 -116 -78 -27 -17 -72 -48 -115 -80 -23 -16
-52 -37 -64 -45 -62 -42 -555 -414 -558 -421 -2 -5 -8 -9 -13 -9 -5 0 -22 -11
-37 -24 -15 -14 -41 -35 -59 -48 -32 -23 -64 -48 -163 -126 -186 -148 -271
-217 -314 -255 -17 -15 -46 -38 -64 -50 -39 -26 -60 -68 -203 -397 -56 -129
-112 -259 -125 -288 -13 -29 -24 -59 -24 -67 0 -8 -4 -15 -9 -15 -5 0 -12 -12
-16 -27 -3 -15 -19 -54 -34 -88 -16 -33 -37 -80 -47 -105 -10 -25 -26 -61 -36
-80 l-16 -35 26 -6 c15 -3 489 -6 1053 -8 l1026 -2 100 123 c95 117 133 162
178 213 11 13 40 46 65 75 25 29 56 65 70 80 14 15 63 69 110 121 112 124 616
627 754 754 60 55 126 116 147 135 47 44 159 143 169 150 10 6 138 120 162
143 10 9 20 17 23 17 3 0 16 10 29 23 12 12 38 33 56 47 18 14 40 32 49 41 9
8 63 53 121 100 58 46 110 89 117 94 7 6 18 15 25 20 12 10 180 140 203 157 6
4 26 20 45 36 19 15 45 34 56 42 19 13 158 116 209 155 76 57 156 114 188 134
20 12 37 26 37 29 0 4 9 12 19 17 39 20 151 100 151 107 0 4 4 8 9 8 8 0 273
176 306 203 6 4 62 41 125 82 63 40 120 79 127 84 7 6 14 11 17 11 3 0 45 26
93 58 48 32 117 76 153 98 36 21 67 41 70 44 4 5 115 74 168 105 9 6 58 35
107 65 50 30 98 60 107 65 10 6 88 52 173 103 86 50 160 92 165 92 6 0 10 3
10 8 0 4 10 12 23 18 18 9 421 233 513 286 16 9 50 27 77 40 26 12 47 26 47
30 0 5 9 8 19 8 11 0 21 3 23 8 2 4 26 19 53 33 141 74 234 124 273 146 23 13
42 20 42 16 0 -4 4 -3 8 2 4 6 75 44 157 85 83 41 152 78 155 81 3 4 16 10 30
14 14 4 37 16 51 26 14 10 29 16 33 12 3 -3 6 -2 6 4 0 10 25 21 41 19 4 -1
17 8 29 19 12 11 24 19 26 17 3 -2 68 28 147 67 78 38 174 83 212 101 39 18
111 51 160 75 50 24 162 75 250 115 88 40 165 75 170 78 6 4 15 7 20 8 9 2
257 109 310 134 18 8 71 30 85 35 3 1 25 11 50 22 25 11 72 30 105 44 33 13
63 28 66 32 3 5 10 8 15 7 5 0 18 2 29 6 26 8 23 7 70 28 70 31 90 39 103 42
16 3 122 56 122 61 0 4 -26 4 -31 -1z"/>
<path d="M7814 3930 c-66 -37 -181 -99 -274 -147 -41 -21 -81 -44 -88 -50 -7
-7 -18 -13 -23 -13 -5 0 -44 -20 -87 -43 -42 -24 -113 -63 -157 -87 -44 -23
-93 -50 -110 -60 -16 -10 -52 -30 -80 -45 -27 -16 -68 -39 -90 -51 -22 -13
-60 -33 -85 -46 -25 -13 -47 -26 -50 -29 -3 -4 -25 -17 -50 -29 -25 -12 -47
-26 -50 -29 -3 -4 -16 -12 -30 -18 -14 -7 -52 -28 -85 -48 -33 -19 -78 -45
-100 -56 -22 -12 -42 -24 -45 -28 -3 -3 -27 -17 -53 -31 -27 -14 -50 -27 -52
-30 -2 -3 16 -53 39 -110 23 -58 43 -108 44 -112 2 -4 11 -28 22 -54 11 -25
20 -49 20 -53 0 -4 9 -26 20 -49 11 -22 20 -47 20 -55 0 -7 4 -17 9 -22 4 -6
29 -64 55 -130 26 -66 54 -133 61 -150 7 -16 27 -66 44 -110 18 -44 36 -89 41
-100 5 -11 21 -51 35 -90 15 -38 36 -87 46 -107 10 -21 17 -38 14 -38 -4 0 17
-53 57 -139 11 -25 21 -52 23 -60 2 -9 15 -42 29 -74 14 -32 26 -64 26 -72 0
-8 5 -15 10 -15 6 0 9 -3 8 -7 -2 -5 8 -35 21 -68 71 -177 114 -283 126 -310
7 -16 21 -51 31 -78 9 -26 22 -48 28 -49 6 0 457 -2 1001 -3 705 -2 992 1 997
8 4 6 3 16 -1 22 -4 5 -25 53 -47 105 -21 52 -44 105 -52 117 -7 12 -13 24
-13 28 1 3 -6 21 -14 41 -8 20 -15 38 -15 40 0 2 -13 33 -30 69 -16 36 -30 67
-30 69 0 2 -10 25 -22 52 -11 27 -21 51 -20 54 0 3 -3 10 -8 15 -4 6 -13 27
-19 48 -7 20 -17 37 -22 37 -6 0 -8 3 -5 8 2 4 -6 30 -20 57 -13 28 -24 53
-24 57 0 7 -28 71 -71 164 -10 23 -19 44 -19 47 0 3 -9 26 -20 51 -11 26 -20
50 -21 54 -1 4 -13 28 -26 53 -13 26 -23 49 -23 53 0 3 -11 29 -24 58 -13 29
-36 82 -51 118 -14 36 -35 83 -45 105 -10 22 -41 96 -70 165 -29 69 -60 143
-70 165 -10 22 -37 85 -60 140 -23 55 -50 118 -60 140 -16 36 -42 98 -87 205
-8 19 -19 43 -24 53 -5 9 -19 43 -31 75 -11 31 -27 66 -34 77 -7 11 -14 25
-14 30 -1 6 -10 28 -20 51 -11 22 -28 63 -39 90 -10 27 -30 72 -42 99 -13 28
-22 53 -21 58 1 4 -3 7 -10 7 -6 0 -8 3 -5 7 9 8 -12 33 -27 33 -6 -1 -34 -14
-62 -30z"/>
</g>
</svg>
